<svg width="167" height="44" viewBox="0 0 167 44" fill="none" xmlns="http://www.w3.org/2000/svg">
<path d="M71.8364 33.065C72.0888 33.4648 72.2151 33.8855 72.2151 34.3274C72.2151 34.8954 71.9731 35.3688 71.4892 35.7475C71.0053 36.1052 70.4057 36.284 69.6904 36.284C68.7436 36.284 67.9967 35.9369 67.4497 35.2426C66.9237 34.5272 66.6081 33.5174 66.5029 32.2129C66.019 33.6015 65.3247 34.6535 64.42 35.3688C63.5363 36.0842 62.4423 36.4418 61.1379 36.4418C59.2022 36.4418 57.7926 35.716 56.9089 34.2643C56.0253 32.7915 55.5835 30.8769 55.5835 28.5205C55.5835 25.596 56.162 23.3343 57.3192 21.7353C58.4974 20.1363 60.1595 19.3368 62.3055 19.3368C63.2944 19.3368 64.1254 19.5157 64.7987 19.8733C65.493 20.231 65.9874 20.7465 66.282 21.4197V19.179C66.282 16.9699 66.0716 15.15 65.6508 13.7193C66.3241 13.1723 67.0499 12.8988 67.8284 12.8988C68.4385 12.8988 68.9435 13.0776 69.3432 13.4353C69.764 13.7929 69.9744 14.2663 69.9744 14.8554L69.9428 31.8342C69.9428 32.9283 70.29 33.4753 70.9843 33.4753C71.384 33.4753 71.6681 33.3385 71.8364 33.065ZM62.2424 34.3589C63.5258 34.3589 64.5042 33.5489 65.1774 31.9289C65.8717 30.2878 66.2189 28.3101 66.2189 25.9958C66.2189 24.5651 66.0085 23.4185 65.5877 22.5558C65.1669 21.6932 64.3674 21.2619 63.1892 21.2619C60.7907 21.2619 59.5915 23.6499 59.5915 28.4258C59.5915 30.4035 59.7808 31.8868 60.1595 32.8757C60.5593 33.8645 61.2536 34.3589 62.2424 34.3589ZM88.0572 33.0334C88.3307 33.4332 88.4675 33.8435 88.4675 34.2643C88.4675 34.8534 88.215 35.3478 87.7101 35.7475C87.2051 36.1262 86.5424 36.3156 85.7219 36.3156C84.712 36.3156 83.9335 35.979 83.3865 35.3057C82.8395 34.6114 82.5344 33.4963 82.4713 31.9604C81.8611 33.2859 81.0196 34.3484 79.9466 35.1479C78.8735 35.9264 77.6322 36.3156 76.2226 36.3156C75.0023 36.3156 74.0135 35.9895 73.256 35.3373C72.5197 34.685 72.1515 33.7803 72.1515 32.6232C72.1515 31.2767 72.6564 30.1721 73.6663 29.3095C74.6972 28.4469 76.0017 27.7946 77.5796 27.3528C78.9893 26.9531 80.5462 26.7532 82.2504 26.7532V25.9327C82.2504 24.1443 82.0084 22.8188 81.5245 21.9562C81.0616 21.0936 80.2832 20.6623 79.1891 20.6623C78.4528 20.6623 77.8531 20.8622 77.3903 21.2619C76.9274 21.6406 76.696 22.2508 76.696 23.0923C76.696 23.5763 76.7801 24.0286 76.9484 24.4494C77.1378 24.8702 77.4429 25.1858 77.8637 25.3962C77.6533 25.6276 77.3587 25.8064 76.98 25.9327C76.6223 26.0379 76.2331 26.0905 75.8123 26.0905C74.9287 26.0905 74.2133 25.8169 73.6663 25.2699C73.1403 24.7229 72.8773 24.0391 72.8773 23.2186C72.8773 21.9773 73.4559 21.02 74.6131 20.3467C75.7913 19.6734 77.3903 19.3368 79.4101 19.3368C81.7244 19.3368 83.4181 19.8838 84.4911 20.9779C85.5641 22.0509 86.1006 23.7866 86.1006 26.1851V31.8342C86.1006 32.9493 86.4582 33.5068 87.1736 33.5068C87.3209 33.5068 87.4787 33.4753 87.647 33.4122C87.8153 33.328 87.952 33.2018 88.0572 33.0334ZM77.9268 33.854C78.579 33.854 79.2523 33.591 79.9466 33.065C80.6409 32.539 81.2194 31.8342 81.6823 30.9506C82.1452 30.0459 82.3766 29.0675 82.3766 28.0156C80.6935 27.9735 79.3575 28.1944 78.3686 28.6783C77.7164 28.9939 77.2009 29.4147 76.8222 29.9407C76.4435 30.4666 76.2541 31.0663 76.2541 31.7395C76.2541 32.3497 76.3909 32.8546 76.6644 33.2544C76.9379 33.6541 77.3587 33.854 77.9268 33.854ZM95.7426 36.4418C93.26 36.4418 91.3349 35.7054 89.9673 34.2327C88.6208 32.7389 87.9475 30.6244 87.9475 27.8893C87.9475 25.2173 88.6418 23.1239 90.0304 21.6091C91.419 20.0942 93.3757 19.3368 95.9004 19.3368C97.7308 19.3368 99.1299 19.7155 100.098 20.4729C101.087 21.2304 101.581 22.1982 101.581 23.3764C101.581 24.1759 101.329 24.8281 100.824 25.333C100.319 25.8169 99.677 26.0589 98.8985 26.0589C98.4988 26.0589 98.1095 26.0063 97.7308 25.9011C97.3732 25.7749 97.0996 25.596 96.9103 25.3646C97.5204 24.9017 97.8255 24.1338 97.8255 23.0608C97.8255 22.2403 97.6151 21.6406 97.1943 21.2619C96.7946 20.8832 96.2581 20.6939 95.5848 20.6939C94.4697 20.6939 93.5861 21.2724 92.9338 22.4296C92.2816 23.5868 91.9555 25.2068 91.9555 27.2897C91.9555 29.6251 92.3763 31.3398 93.2179 32.4338C94.0805 33.5279 95.2903 34.0749 96.8472 34.0749C97.9623 34.0749 98.909 33.8014 99.6875 33.2544C100.466 32.7073 100.971 31.9815 101.202 31.0768C101.56 31.2241 101.739 31.5502 101.739 32.0551C101.739 32.3076 101.697 32.5916 101.613 32.9072C101.297 34.0223 100.613 34.8954 99.5613 35.5266C98.5093 36.1368 97.2364 36.4418 95.7426 36.4418ZM121.733 43.1323C121.27 43.1323 120.87 43.0482 120.534 42.8799C120.197 42.7326 119.882 42.5327 119.587 42.2803C119.818 41.5228 119.976 40.6813 120.06 39.7555C120.144 38.8508 120.187 37.8409 120.187 36.7259V35.3373V33.0019C119.829 34.0749 119.219 34.927 118.356 35.5582C117.494 36.1683 116.463 36.4734 115.263 36.4734C113.517 36.4734 112.16 35.8212 111.192 34.5167C110.224 33.1912 109.741 31.1504 109.741 28.3943C109.741 25.7012 110.34 23.5237 111.539 21.8615C112.739 20.1784 114.622 19.3368 117.188 19.3368C118.556 19.3368 119.85 19.5367 121.07 19.9364C122.291 20.3151 123.248 20.8201 123.942 21.4513V41.1441C123.942 41.7332 123.742 42.2066 123.342 42.5643C122.964 42.922 122.427 43.1113 121.733 43.1323ZM116.273 34.422C117.115 34.422 117.83 34.0749 118.419 33.3806C119.029 32.6863 119.482 31.8132 119.776 30.7612C120.071 29.7092 120.218 28.6362 120.218 27.5422V21.7669C119.882 21.5354 119.461 21.3461 118.956 21.1988C118.451 21.0305 117.925 20.9463 117.378 20.9463C115.989 20.9463 115.032 21.5775 114.506 22.8399C114.001 24.1022 113.749 25.8906 113.749 28.2049C113.749 30.3088 113.938 31.8763 114.317 32.9072C114.716 33.9171 115.369 34.422 116.273 34.422Z" fill="#0D114F"/>
<path d="M105.739 36.4418C105.129 36.4418 104.603 36.2314 104.161 35.8106C103.74 35.3688 103.53 34.8428 103.53 34.2327C103.53 33.6226 103.74 33.1071 104.161 32.6863C104.603 32.2445 105.129 32.0236 105.739 32.0236C106.349 32.0236 106.864 32.2445 107.285 32.6863C107.727 33.1071 107.948 33.6226 107.948 34.2327C107.948 34.8428 107.727 35.3688 107.285 35.8106C106.864 36.2314 106.349 36.4418 105.739 36.4418Z" fill="url(#paint0_linear_10911:622)"/>
<rect width="43.832" height="43.832" rx="7.88976" fill="url(#paint1_linear_10911:622)"/>
<g filter="url(#filter0_di_10911:622)">
<path d="M33.258 32.413H29.3487C29.1852 32.413 29.0508 32.2854 29.0363 32.1225C29.0317 32.071 29.0267 32.0211 29.0214 31.9726C28.7973 29.9298 26.5982 28.1752 24.5583 28.4238C23.0692 28.6052 21.8351 29.7293 20.3445 29.8976C19.3393 30.011 18.4621 29.9594 17.4596 29.7629C16.5809 29.5907 15.7327 29.2756 14.952 28.8372C13.1132 27.8044 12.126 26.7409 11.2107 25.1387C10.681 24.2113 10.303 23.1958 10.1655 22.1367C10.0517 21.2602 10.0589 20.4879 10.1544 19.6373C10.3004 18.3379 10.7168 17.0731 11.3964 15.956C12.3504 14.3877 13.3816 13.4125 15.0616 12.4997C15.7731 12.1131 16.5387 11.8304 17.3296 11.6567C19.3324 11.2169 20.629 11.3458 22.5759 11.956C23.6591 12.2955 24.8356 13.0229 25.8362 13.9722C28.0243 16.0481 28.1911 19.3058 28.2464 22.3215C28.2516 22.601 27.996 22.8124 27.7209 22.7627C26.3696 22.5183 25.3981 22.4987 24.0703 22.7098C23.7143 22.7664 23.4214 22.3979 23.5175 22.0505C23.5591 21.8998 23.5918 21.7518 23.6163 21.6058C24.0088 19.2711 22.4111 16.606 20.0547 16.3763C18.718 16.246 17.3943 16.7918 16.4138 17.8864C15.8286 18.4381 15.5049 19.3034 15.4028 20.2261C15.1383 22.6172 17.0941 24.9295 19.497 25.0438C19.9555 25.0656 20.3982 24.999 20.8505 24.8457C22.2759 24.3625 23.6654 23.6404 25.1662 23.7534C29.6812 24.0934 32.8523 26.1288 33.6866 31.9218C33.724 32.1814 33.5203 32.413 33.258 32.413Z" fill="#FAFAFA"/>
</g>
<defs>
<filter id="filter0_di_10911:622" x="8.44906" y="11.3963" width="26.8743" height="24.2814" filterUnits="userSpaceOnUse" color-interpolation-filters="sRGB">
<feFlood flood-opacity="0" result="BackgroundImageFix"/>
<feColorMatrix in="SourceAlpha" type="matrix" values="0 0 0 0 0 0 0 0 0 0 0 0 0 0 0 0 0 0 127 0" result="hardAlpha"/>
<feOffset dy="1.63237"/>
<feGaussianBlur stdDeviation="0.816183"/>
<feColorMatrix type="matrix" values="0 0 0 0 0 0 0 0 0 0 0 0 0 0 0 0 0 0 0.07 0"/>
<feBlend mode="normal" in2="BackgroundImageFix" result="effect1_dropShadow_10911:622"/>
<feBlend mode="normal" in="SourceGraphic" in2="effect1_dropShadow_10911:622" result="shape"/>
<feColorMatrix in="SourceAlpha" type="matrix" values="0 0 0 0 0 0 0 0 0 0 0 0 0 0 0 0 0 0 127 0" result="hardAlpha"/>
<feOffset dy="1.63237"/>
<feGaussianBlur stdDeviation="1.02023"/>
<feComposite in2="hardAlpha" operator="arithmetic" k2="-1" k3="1"/>
<feColorMatrix type="matrix" values="0 0 0 0 0.219608 0 0 0 0 0.533333 0 0 0 0 1 0 0 0 0.13 0"/>
<feBlend mode="normal" in2="shape" result="effect2_innerShadow_10911:622"/>
</filter>
<linearGradient id="paint0_linear_10911:622" x1="189.169" y1="-59.0291" x2="177.57" y2="54.1337" gradientUnits="userSpaceOnUse">
<stop stop-color="#5498FF"/>
<stop offset="0.515625" stop-color="#428EFF"/>
<stop offset="1" stop-color="#297FFF"/>
</linearGradient>
<linearGradient id="paint1_linear_10911:622" x1="52.463" y1="-66.3077" x2="19.6129" y2="48.5381" gradientUnits="userSpaceOnUse">
<stop stop-color="#5498FF"/>
<stop offset="0.515625" stop-color="#428EFF"/>
<stop offset="1" stop-color="#297FFF"/>
</linearGradient>
</defs>
</svg>
